<svg width="471" height="433" viewBox="0 0 471 433" fill="none" xmlns="http://www.w3.org/2000/svg">
<g clip-path="url(#clip0)">
<path d="M378.844 209.083C379.421 214.825 375.01 219.403 372.733 220.974L273.099 77.7942L172.91 50.1516C169.427 50.5016 163.17 50.1638 166 46.0131C169.537 40.8247 187.542 34.1826 192.124 31.3057C196.705 28.4288 222.506 18.5868 246.697 16.9615C270.888 15.3362 292.989 17.143 307.052 19.7573C321.116 22.3716 333.329 30.8103 337.828 35.1911C342.328 39.572 356.148 47.8491 364.343 56.6916C372.538 65.534 390.455 82.26 399.774 94.2115C409.093 106.163 410.615 121.314 411.256 127.694C411.898 134.073 410.531 136.627 411.091 142.209C411.652 147.791 406.267 150.749 405.864 154.817C405.461 158.885 400.073 169.898 397.902 172.532C395.731 175.167 392.354 181.95 392.031 186.816C391.708 191.681 378.123 201.906 378.844 209.083Z" fill="#C5B7D3" stroke="#857496" stroke-width="2.2621" stroke-linecap="round" stroke-linejoin="round"/>
<path d="M241.305 44.085C225.153 36.8476 211.57 39.0179 211.57 39.0179C212.964 36.7298 217.037 32.0244 222.181 31.5076C228.611 30.8615 247.093 37.0596 258.182 42.3891C267.054 46.6527 270.126 56.2247 270.553 60.4778C270.553 60.4778 257.456 51.3224 241.305 44.085Z" fill="#BEB3CB"/>
<path d="M211.57 39.0179C211.57 39.0179 225.153 36.8476 241.305 44.085C257.456 51.3224 270.553 60.4778 270.553 60.4778" stroke="#4E5054" stroke-width="1.50807" stroke-linecap="round" stroke-linejoin="round"/>
<path d="M295.381 81.3418C295.381 81.3418 309.843 95.9985 329.443 129.471C349.042 162.943 354.341 183.353 354.341 183.353" stroke="#4E5054" stroke-width="1.50807" stroke-linecap="round" stroke-linejoin="round"/>
<path d="M368.573 155.343C359.178 126.483 346.324 111.665 346.324 111.665C338.157 100.404 318.961 76.8789 307.518 72.8736C300.277 70.3389 332.654 94.2537 354.114 132.63C366.566 154.897 366.036 189.913 376.192 206.934C376.192 206.934 377.967 184.202 368.573 155.343Z" fill="#D2C5DF"/>
<path d="M386.083 192.246C383.96 196.97 379.087 203.42 376.917 206.055L373.872 175.752C373.359 170.649 369.109 155.288 367.049 148.246C371.924 150.978 382.316 157.988 384.886 164.174C388.098 171.906 391.07 177.246 389.783 180.597C388.496 183.949 388.737 186.341 386.083 192.246Z" fill="#BAACC9"/>
<path d="M403.701 133.286C403.505 144.26 397.29 161.048 394.207 168.07L391.242 138.565C390.281 128.996 378.791 119.679 378.39 115.692C377.99 111.705 384.9 115.843 385.223 110.978C385.546 106.112 382.897 95.907 387.236 98.6929C391.575 101.479 403.946 119.568 403.701 133.286Z" fill="#BAACC9"/>
<path d="M359.189 94.2624C351.349 80.8735 328.072 53.8926 317.414 42.0757C323.976 45.4437 340.813 53.5789 356.625 68.7443C376.39 87.7011 392.033 162.589 392.834 170.563C393.475 176.943 390.552 188.245 385.433 193.861C388.141 188.487 391.391 180.436 390.75 174.057C389.948 166.082 368.989 110.999 359.189 94.2624Z" fill="#D2C5DF"/>
<path d="M346.325 111.665C346.325 111.665 359.179 126.483 368.573 155.342C377.968 184.201 376.193 206.933 376.193 206.933" stroke="#857496" stroke-width="2.2621" stroke-linecap="round" stroke-linejoin="round"/>
<path d="M379.995 123.585C379.995 123.585 387.547 134.104 390.596 148.296C393.646 162.488 394.367 169.665 394.367 169.665" stroke="#857496" stroke-width="2.2621" stroke-linecap="round" stroke-linejoin="round"/>
<path fill-rule="evenodd" clip-rule="evenodd" d="M170.55 185.95C170.55 185.95 175.572 180.601 175.299 178.562C175.026 176.524 181.861 183.111 181.861 183.111C181.861 183.111 177.502 187.129 175.299 187.129C173.096 187.129 170.55 185.95 170.55 185.95Z" fill="#D1C7D9"/>
<path fill-rule="evenodd" clip-rule="evenodd" d="M151.788 222.487L150.945 229.093L163.529 231.617L196.941 222.487L196.213 218.047L173.943 215.028L151.788 222.487Z" fill="#464545"/>
<path fill-rule="evenodd" clip-rule="evenodd" d="M151.996 214.314C151.996 214.314 150.595 213.351 151.062 210.079C151.529 206.808 150.934 205.3 153.088 205.144C155.241 204.988 158.197 205.538 159.152 204.988C160.107 204.438 161.264 203.467 164.152 203.778C167.041 204.088 202.17 213.129 202.17 213.129C202.17 213.129 203.362 215.773 202.786 216.967C202.209 218.161 198.025 220.307 198.025 220.307L151.996 214.314Z" fill="#C4B9CB"/>
<path d="M307.784 161.68C307.784 161.68 308.81 155.668 314.942 156.268C321.074 156.868 323.202 159.177 325.183 163.871C327.164 168.565 327.074 177.149 325.183 183.359" stroke="#4E5054" stroke-width="2.2621" stroke-linecap="round" stroke-linejoin="round"/>
<path fill-rule="evenodd" clip-rule="evenodd" d="M302.788 205.112L302.506 203.27L304.153 201.456L306.284 201.972L307.031 203.747L306.564 205.426L304.449 205.98L302.788 205.112Z" fill="white" stroke="#4E5054" stroke-width="1.50807" stroke-linecap="round" stroke-linejoin="round"/>
<path d="M183.369 187.129C183.369 187.129 186.243 192.475 190.449 197.189C194.656 201.902 197.417 203.465 200.712 204.472" stroke="#918996" stroke-width="1.50807" stroke-linecap="round" stroke-linejoin="round"/>
<path fill-rule="evenodd" clip-rule="evenodd" d="M155.863 210.516C156.398 210.404 158.08 210.675 158.177 212.046C158.273 213.416 159.917 208.985 161.898 209.017C163.88 209.05 166.871 212.161 166.838 212.768C166.804 213.375 169.673 210.151 171.544 210.151C173.415 210.151 174.783 212.768 174.783 212.768C174.783 212.768 176.411 209.017 177.468 209.017C178.525 209.017 180.456 208.744 182.363 210.151C184.27 211.558 184.867 213.785 184.867 213.785C184.867 213.785 187.102 210.516 188.262 210.516C189.421 210.516 190.806 212.583 191.597 214.646C192.387 216.71 192.965 216.525 194.856 214.646C196.747 212.768 198.547 213.785 199.289 213.785C200.031 213.785 200.798 216.768 200.704 217.288C200.61 217.808 197.163 221.343 195.84 221.343C194.516 221.343 193.664 219.721 193.037 219.694C192.41 219.666 190.327 221.825 188.974 221.841C187.62 221.857 184.404 220.631 184.315 218.462C184.225 216.293 182.841 219.661 179.479 220.038C176.118 220.416 175.437 217.96 175.437 217.96C175.437 217.96 174.386 220.365 172.262 220.416C170.138 220.467 168.293 220.359 167.565 219.694C166.838 219.028 166.407 220.845 163.287 221.343C160.166 221.841 158.501 221.273 157.732 220.845C156.963 220.416 156.471 222.342 154.474 222.522C152.478 222.702 152.715 222.515 152.478 219.139C152.24 215.763 153.838 212.771 154.219 212.046C154.601 211.321 155.327 210.627 155.863 210.516Z" fill="white" stroke="#4E5054" stroke-width="1.50807" stroke-linecap="round" stroke-linejoin="round"/>
<path fill-rule="evenodd" clip-rule="evenodd" d="M155.612 229.334C155.612 229.334 155.157 224.253 156.155 224.089C157.153 223.925 161.545 222.859 163.403 222.789C165.262 222.72 167.506 222.928 168.237 222.859C168.968 222.789 172.675 223.052 173.694 224.089C174.712 225.126 175.625 221.814 176.564 221.814C177.504 221.814 180.884 223.58 181.689 224.089C182.494 224.598 184.104 221.814 185.838 221.814C187.572 221.814 191.663 224.089 191.663 224.089C191.663 224.089 179.945 229.416 173.567 230.066C167.188 230.715 162.247 231.824 159.821 231.583C157.395 231.343 155.612 229.334 155.612 229.334Z" fill="white" stroke="#4E5054" stroke-width="1.50807" stroke-linecap="round" stroke-linejoin="round"/>
<path d="M292.704 345.853C292.704 345.853 265.19 358.723 250.092 362.852C234.993 366.98 218.318 365.242 211.861 358.723C205.404 352.204 208.503 337.945 208.503 337.945C208.503 337.945 221.589 348.787 240.718 345.173C259.848 341.559 287.703 326.625 287.703 326.625" stroke="#4E5054" stroke-width="2.2621" stroke-linecap="round" stroke-linejoin="round"/>
<path d="M210.517 348.036C210.517 348.036 210.332 353.125 222.465 355.797C227.323 356.868 236.848 357.343 245.2 355.797C257.706 353.483 270.044 347.909 279.885 343.214" stroke="#4E5054" stroke-width="1.50807" stroke-linecap="round" stroke-linejoin="round"/>
<path d="M156.224 333.412C156.224 333.412 146.385 334.901 137.811 338.072C136.187 338.673 123.055 342.528 104.839 356.182C94.4426 363.975 68.7559 389.21 68.7559 389.21" stroke="#4E5054" stroke-width="2.2621" stroke-linecap="round" stroke-linejoin="round"/>
<path fill-rule="evenodd" clip-rule="evenodd" d="M294.212 205.943L295.773 203.718L298.758 204.257L300.244 206.441L299.319 209.255L296.808 209.75L294.95 209.255L294.212 207.701V205.943Z" fill="white" stroke="#4E5054" stroke-width="1.50807" stroke-linecap="round" stroke-linejoin="round"/>
<path d="M325.731 188.852C325.731 188.852 329.229 187.925 330.084 190.994C330.998 193.715 329.87 196.823 327.849 196.925C325.828 197.028 325.127 195.393 325.127 195.393" stroke="#4E5054" stroke-width="1.50807" stroke-linecap="round" stroke-linejoin="round"/>
<path d="M150.191 191.653C150.191 191.653 148.897 198.592 146.515 201.216C144.134 203.841 144.639 211.205 146.515 214.778C148.392 218.351 150.191 221.061 150.191 221.061" stroke="#918996" stroke-width="1.50807" stroke-linecap="round" stroke-linejoin="round"/>
<path fill-rule="evenodd" clip-rule="evenodd" d="M152.894 224.442C152.894 224.442 151.649 227.228 150.458 228.204C149.266 229.18 147.872 232.638 149.266 234.401C150.66 236.165 152.634 237.928 164.517 236.165C176.401 234.401 182.458 232.462 190.813 229.201C199.167 225.941 203.728 214.274 203.728 214.274C203.728 214.274 195.764 224.833 187.287 227.16C178.81 229.488 168.755 231.465 162.946 231.465C157.137 231.465 153.733 230.199 152.894 229.201C152.054 228.204 152.894 224.442 152.894 224.442Z" fill="#996999" stroke="#4E5054" stroke-width="1.50807" stroke-linecap="round" stroke-linejoin="round"/>
<path d="M209.76 344.095C209.76 344.095 216.844 351.36 234.564 350.699C252.284 350.038 287.426 332.657 287.426 332.657" stroke="#4E5054" stroke-width="1.50807" stroke-linecap="round" stroke-linejoin="round"/>
<path d="M211.268 353.183C211.268 353.183 214.551 358.419 222.041 359.904C229.531 361.389 237.811 362.862 254.797 357.779C271.783 352.697 284.409 344.722 284.409 344.722" stroke="#4E5054" stroke-width="1.50807" stroke-linecap="round" stroke-linejoin="round"/>
<path d="M396.76 334.166C396.76 334.166 421.505 345.048 429.671 350.348C437.837 355.647 444.841 362.553 456.061 378.804C467.282 395.055 470.656 398.258 470.656 398.258" stroke="#4E5054" stroke-width="2.2621" stroke-linecap="round" stroke-linejoin="round"/>
<path d="M199.958 206.734C199.958 206.734 206.972 212.545 207.373 218.519C207.775 224.493 207.373 234.19 203.665 240.665" stroke="#918996" stroke-width="1.50807" stroke-linecap="round" stroke-linejoin="round"/>
<path d="M158.486 243.681C158.486 243.681 171.649 243.296 182.325 238.747C193.001 234.198 195.433 230.863 195.433 230.863" stroke="#918996" stroke-width="0.754033" stroke-linecap="round" stroke-linejoin="round"/>
<path d="M218.809 304.174C218.809 304.174 236.987 306.122 249.804 301.575C262.622 297.028 272.345 289.678 272.345 289.678" stroke="#918996" stroke-width="0.754033" stroke-linecap="round" stroke-linejoin="round"/>
<path fill-rule="evenodd" clip-rule="evenodd" d="M141.379 182.656C141.379 182.656 137.331 189.04 136.844 194.354C136.357 199.667 138.83 205.4 141.379 210.249C143.929 215.098 136.341 209.03 134.24 203.09C132.139 197.15 132.647 193.567 134.24 187.828C135.833 182.088 141.379 182.656 141.379 182.656Z" fill="#F5F4F6"/>
<path fill-rule="evenodd" clip-rule="evenodd" d="M172.059 278.204C172.059 278.204 216.59 276.817 232.669 270.548C248.749 264.278 275.724 256.346 283.619 242.494C291.514 228.642 287.249 253.524 269.692 264.456C252.135 275.387 227.172 284.967 215.064 290.224C209.566 292.611 209.587 296.281 208.682 295.635C207.776 294.988 205.86 291.309 201.835 288.453C196.556 284.708 192.403 283.175 186.396 282.329C180.39 281.482 172.059 278.204 172.059 278.204Z" fill="#E1D9EA"/>
<path fill-rule="evenodd" clip-rule="evenodd" d="M290.535 215.459C289.413 216.755 290.578 221.032 289.06 225.696C287.541 230.36 285.164 234.633 285.164 234.633C285.164 234.633 292.983 224.384 295.078 223.745C297.174 223.107 300.033 232.702 300.033 232.702C300.033 232.702 303.694 222.2 306.639 216.857C309.584 211.513 316.079 205.226 316.079 205.226C316.079 205.226 312.024 206.472 310.484 207.53C304.379 211.725 300.211 214.941 298.221 215.459C294.484 216.432 291.657 214.162 290.535 215.459Z" fill="#7E7684"/>
<path fill-rule="evenodd" clip-rule="evenodd" d="M151.846 193.714C152.452 195.518 152.511 197.073 152.128 198.472C151.744 199.871 157.645 197.907 158.478 197.361C159.312 196.815 159.583 202.008 158.667 202.514C157.784 203.001 157.481 203.959 156.119 203.847C153.343 203.618 148.977 205.012 148.063 206.932C147.15 208.852 147.664 209.485 147.664 210.366C147.664 211.246 146 207.762 146.523 204.63C147.024 201.635 146.124 202.95 148.363 198.928C149.786 196.373 150.728 191.851 150.638 191.687C150.548 191.524 151.24 191.911 151.846 193.714Z" fill="#F5F4F6"/>
<path fill-rule="evenodd" clip-rule="evenodd" d="M144.132 220.355C144.132 220.355 147.433 235.461 148.022 238.229C148.611 240.996 151.699 242.28 151.699 244.108C151.699 245.937 149.031 251.118 149.031 254.559C149.031 258 147.581 263.723 150.08 267.5C152.58 271.276 147.14 269.55 147.581 258.724C148.022 247.898 150.041 246.207 149.031 244.837C148.022 243.467 146.062 235.579 144.783 232C143.504 228.421 142.632 220.646 141.996 219.146C141.359 217.645 139.635 213.52 139.635 213.52C139.635 213.52 142.917 216.647 143.525 217.588C144.132 218.529 144.132 220.355 144.132 220.355Z" fill="#F5F4F6"/>
<path fill-rule="evenodd" clip-rule="evenodd" d="M199.958 288.923C199.958 288.923 204.721 295.866 204.651 298.983C204.58 302.1 205.574 315.75 206.694 320.543C207.814 325.337 211.476 337.638 212.6 339.304C213.723 340.97 209.167 327.393 207.931 317.379C206.694 307.366 208.738 299.442 206.694 296.422C204.651 293.402 199.958 288.923 199.958 288.923Z" fill="#F5F4F6"/>
<path fill-rule="evenodd" clip-rule="evenodd" d="M150.638 215.782C150.638 215.782 147.884 212.884 147.93 209.709C147.976 206.534 150.406 203.855 152.249 203.855C154.091 203.855 153.99 204.132 155.918 203.855C157.274 203.66 156.473 202.394 160.274 202.213C162.414 202.111 170.35 204.39 185.433 208.649C190.166 209.986 202.22 212.346 202.22 212.346C202.22 212.346 190.818 211.879 186.107 211.079C171.746 208.639 163.779 206.613 162.453 206.511C159.813 206.309 159.234 207.806 157.645 207.806C156.055 207.806 153.234 206.825 151.674 208.649C150.114 210.474 150.638 215.782 150.638 215.782Z" fill="#996999" stroke="#4E5054" stroke-width="1.50807" stroke-linecap="round" stroke-linejoin="round"/>
<path d="M242.938 137.363C242.938 137.363 267.739 143.155 273.476 144.526" stroke="#4E5054" stroke-width="3.01613" stroke-linecap="round" stroke-linejoin="round"/>
<path fill-rule="evenodd" clip-rule="evenodd" d="M159.956 192.413C159.956 192.413 161.11 186.275 162.174 186.101C163.239 185.928 153.577 184.951 153.577 183.388C153.577 181.825 155.571 177.962 156.744 177.007C157.916 176.052 153.5 174.894 149.187 177.007C144.874 179.12 143.297 178.028 143.411 182.064C143.525 186.101 152.831 185.27 152.831 187.719C152.831 190.168 152.648 193.297 153.577 194.384C154.506 195.471 159.956 192.413 159.956 192.413Z" fill="#D1C7D9"/>
<path d="M210.514 274.597C210.514 274.597 254.806 264.66 266.11 258.056C277.414 251.452 290.089 224.932 290.089 220.241C290.089 215.551 290.512 213.961 291.598 213.961C292.685 213.961 292.13 217.303 298.701 215.632C305.272 213.961 308.553 206.956 313.368 205.37C318.184 203.784 325.98 195.488 327.73 188.944C329.48 182.4 332.759 172.674 330.244 164.941C327.73 157.207 321.478 152.026 315.978 152.47C310.477 152.914 307.205 151.62 302.212 158.28C297.218 164.941 293.883 164.58 292.741 163.424" stroke="#4E5054" stroke-width="1.50807" stroke-linecap="round" stroke-linejoin="round"/>
<path fill-rule="evenodd" clip-rule="evenodd" d="M151.069 184.891C151.763 183.852 152.961 182.65 156.309 182.605C159.657 182.56 163.412 186.192 165.064 186.947C165.831 187.298 167.779 188.49 171.129 186.947C172.589 186.276 177.379 182.605 177.379 182.605C177.379 182.605 179.373 183.744 178.654 184.891C177.935 186.038 175.151 188.107 172.852 188.723C170.554 189.339 168.947 189.853 165.971 188.723C162.996 187.594 161.26 186.079 159.373 185.485C157.486 184.891 156.011 184.972 154.385 185.485C152.759 185.998 150.375 185.93 151.069 184.891Z" fill="#93899C"/>
<path fill-rule="evenodd" clip-rule="evenodd" d="M229.18 83.6572C230.712 75.8781 234.604 74.2619 236.359 74.4262C238.444 75.1474 243.569 77.7413 247.386 82.3476C249.563 84.9736 251.03 87.8316 252.424 90.5452C254.086 93.7813 255.643 96.8123 258.17 99.0002C260.272 100.82 262.031 100.346 264.09 99.7912C266.582 99.1197 269.513 98.3297 274.025 101.346C280.222 105.488 277.521 109.284 274.169 113.995C273.064 115.548 271.888 117.2 270.937 118.997C267.101 126.244 269.646 137.391 272.746 144.139C275.402 149.922 275.1 150.159 269.777 154.32C268.889 155.015 267.861 155.818 266.683 156.776C258.45 163.468 257.714 177.464 258.712 191.336C259.282 199.262 260.174 203.751 260.938 207.599L260.938 207.599L260.938 207.599C261.512 210.484 262.014 213.009 262.254 216.353C262.815 224.156 258.792 228.803 246.162 234.94C233.532 241.077 238.956 250.58 241.806 253.861C244.657 257.142 245.292 258.384 244.446 261.401C243.726 263.967 243.957 265.439 244.143 266.625C244.549 269.221 244.74 270.442 234.266 278.744C228.292 283.479 228.151 284.127 226.677 290.905C226.534 291.566 226.378 292.284 226.202 293.071C225.934 294.271 224.619 295.27 222.947 296.54C219.759 298.962 215.274 302.369 214.284 310.036C214.284 316.923 219.833 319.442 223.368 321.046C224.865 321.726 226.001 322.241 226.202 322.855C226.797 324.67 225.879 325.546 224.432 326.925C223.165 328.133 221.492 329.727 220.077 332.677C217.046 338.995 217.607 346.798 219.653 351.008C220.555 352.865 223.168 354.938 225.914 357.116C229.393 359.876 233.086 362.805 233.78 365.678C234.461 368.498 233.127 368.839 231.969 369.135C231.016 369.379 230.182 369.592 230.686 371.129C231.802 374.535 238.801 374.903 242.144 372.919C244.818 371.333 244.618 366.932 244.183 364.93C244.472 364.909 245.657 363.604 248.082 358.549C249.566 355.455 248.541 352.333 247.712 349.807C246.847 347.173 246.195 345.186 248.818 344.553C251.684 343.861 251.602 339.858 251.516 335.657C251.447 332.324 251.376 328.867 252.772 326.839C254.017 325.031 255.841 323.723 257.569 322.484C260.223 320.58 262.654 318.837 262.428 315.687C262.241 313.086 261.573 309.866 260.906 306.647L260.906 306.646L260.906 306.646C260.239 303.426 259.571 300.206 259.384 297.605C259.01 292.403 260.432 287.944 265.634 287.57C270.836 287.196 271.903 285.637 271.591 281.302C271.365 278.168 276.554 275.501 282.604 272.39C284.924 271.197 287.371 269.939 289.688 268.565C295.385 265.185 292.372 254.261 289.639 244.353C288.363 239.726 287.148 235.321 286.91 232.009C286.161 221.605 287.771 219.747 295.199 213.984C298.932 211.088 302.335 206.675 304.83 203.442C307.3 200.24 308.878 198.193 309.002 199.919C309.087 201.1 307.946 202.07 306.442 203.35C303.528 205.829 299.25 209.468 299.867 218.044C300.393 225.357 302.65 228.973 304.383 231.751C305.858 234.115 306.954 235.871 306.281 238.78C305.599 241.731 303.183 245.803 300.355 250.57C296.403 257.232 291.646 265.251 289.688 273.466C288.932 276.635 289.499 280.21 290.028 283.548L290.028 283.549C290.631 287.346 291.184 290.835 289.688 293.071C288.062 295.5 285.302 296.725 282.626 297.914C278.419 299.782 274.419 301.559 275.361 307.774C275.485 308.595 275.849 309.737 276.271 311.065C277.455 314.79 279.104 319.975 277.246 323.609C275.117 327.772 266.998 329.576 262.428 328.118C261.364 327.779 260.509 327.469 259.788 327.208L259.785 327.207L259.785 327.206C257.485 326.373 256.557 326.037 254.625 326.839C252.086 327.893 251.083 332.315 259.384 338.69C267.686 345.064 278.917 336.841 281.393 334.92C282.583 333.996 282.69 329.789 282.809 325.077L282.809 325.077C282.938 319.984 283.082 314.303 284.625 311.545C287.81 305.852 292.637 303.439 296.996 301.26C299.566 299.976 301.973 298.772 303.787 297.026C308.677 292.317 309.301 300.986 305.034 314.365C302.323 322.867 297.783 325.518 295.755 326.702C294.593 327.381 294.256 327.577 295.566 328.118C296.835 328.642 298.49 328.487 300.119 328.333C303.102 328.052 305.999 327.78 306.281 331.705C306.718 337.773 299.289 343.537 293.408 346.574C287.526 349.611 283.939 360.327 284.625 369.864C284.814 372.487 285.293 374.562 285.698 376.315L285.698 376.315C286.764 380.932 287.313 383.309 280.671 387.577C271.508 393.465 274.92 404.549 282.417 411.852C289.019 418.285 296.672 411.124 303.435 404.795L303.436 404.794L303.436 404.794L303.445 404.785C304.358 403.931 305.255 403.092 306.131 402.304C309.247 399.499 310.766 392.794 312.204 386.45C314.164 377.797 315.973 369.815 321.475 373.313C333.743 381.114 335.964 379.005 338.889 376.227C341.312 373.926 344.219 371.165 353.721 373.2C361.545 374.876 373.273 361.074 378.226 355.244C378.653 354.741 379.031 354.297 379.35 353.928C380.527 352.569 381.428 350.484 382.398 348.238C384.747 342.803 387.505 336.422 395.567 337.075C402.246 337.616 406.264 334.457 409.344 332.035C411.518 330.325 413.225 328.983 415.071 329.572C417.64 330.391 416.86 332.896 415.833 336.199C415.077 338.631 414.186 341.494 414.397 344.435C414.896 351.371 422.081 354.34 427.346 354.833C432.61 355.325 438.367 350.554 435.704 349.874C435.241 349.756 434.492 349.659 433.584 349.541C429.262 348.98 421.356 347.953 423.809 342.015C424.706 339.845 426.009 337.805 427.238 335.881L427.238 335.881C430.079 331.434 432.523 327.609 428.631 324.239C426.063 322.016 421.972 321.75 418.946 321.554C415.403 321.324 413.322 321.189 416.861 318.114C421.038 314.485 420.046 312.64 418.389 309.559C417.443 307.799 416.281 305.637 415.739 302.509C414.248 293.901 418.396 290.988 424.527 291.419C430.658 291.849 433.322 292.529 434.376 295.068C435.43 297.606 432.149 300.457 426.885 299.964C421.621 299.471 418.153 299.721 423.666 303.681C429.18 307.642 438.904 309.557 445.216 300.388C451.528 291.22 440.625 285.032 431.089 285.718C421.552 286.404 416.163 284.177 410.893 271.485C410.08 269.527 409.141 266.068 408.017 261.927L408.017 261.927C405.713 253.442 402.632 242.095 398.268 234.94C390.955 222.949 380.764 220.491 378.435 220.197C374.037 219.641 367.47 213.142 366.597 201.005C366.05 193.407 361.621 184.041 358.307 177.033L358.307 177.033L358.306 177.032C356.326 172.845 354.744 169.5 354.628 167.879C354.316 163.544 350.349 156.858 343.906 152.092C338.154 147.838 334.669 136.475 333.193 131.664L333.193 131.661C333.016 131.084 332.868 130.602 332.748 130.237C332.601 129.79 332.431 129.224 332.236 128.576C330.946 124.285 328.564 116.366 324.69 115.13C321.45 114.097 319.711 108.355 318.194 103.345L318.193 103.344L318.193 103.343C317.622 101.459 317.083 99.6775 316.507 98.2898C315.272 95.3161 309.914 89.0518 305.475 83.8615L305.475 83.8611L305.474 83.8606L305.473 83.8595C302.334 80.189 299.654 77.0559 299.217 76.0041C298.377 73.9804 298.599 71.3284 298.942 67.2312C299.029 66.1872 299.124 65.0493 299.211 63.8041C299.642 57.6721 290.904 45.2296 283.101 45.7909C279.302 46.0641 276.809 47.2764 274.738 48.2844C272.554 49.3465 270.838 50.1816 268.549 49.4519C264.957 48.3065 259.314 42.2203 256.768 39.4751L256.768 39.4749L256.767 39.474C256.153 38.8115 255.719 38.3439 255.539 38.1874C254.609 37.3828 254.298 33.0479 256.961 33.7278C257.474 33.8588 257.989 34.0218 258.523 34.191C260.763 34.9001 263.339 35.7155 267.489 34.7134C272.629 33.4723 276.527 27.0916 274.544 23.7485C272.56 20.4053 264.695 20.0996 260.672 24.7463C256.649 29.393 251.017 35.8983 249.345 36.89C248.368 37.4696 243.054 35.6822 237.569 33.8376L237.569 33.8375C233.669 32.526 229.683 31.1855 227.11 30.6463C224.753 30.1527 223.078 30.3669 221.601 30.556C219.194 30.8638 217.31 31.1048 213.856 28.1139C208.279 23.2862 194.838 18.1532 186.106 17.9098C177.374 17.6665 171.555 21.5709 168.274 24.4213C166.451 26.0048 162.965 26.9011 159.802 27.7143C157.272 28.365 154.948 28.9625 153.847 29.8163C152.352 30.9764 151.398 30.8263 149.922 30.594C148.954 30.4417 147.762 30.254 146.045 30.3775C141.71 30.6894 135.335 38.991 133.851 42.5836C132.663 45.4577 133.318 51.3365 133.794 53.9166C133.237 54.2472 131.009 56.3828 126.553 62.2806C122.166 68.0866 121.66 75.235 121.341 79.735L121.341 79.7351L121.341 79.7352L121.341 79.7353C121.255 80.9491 121.183 81.9703 121.052 82.7204C120.721 84.6116 119.111 86.0944 117.458 87.6159C116.026 88.9348 114.562 90.2829 113.872 91.9514C112.388 95.5445 104.523 95.2378 93.1274 94.3146C81.7321 93.3913 77.7714 98.905 76.4116 104.232C75.0519 109.558 75.6755 118.228 79.6423 124.914C83.6091 131.6 80.6401 138.786 68.6895 142.26C66.2026 142.983 63.9302 143.539 61.8493 144.049L61.8492 144.049C53.9311 145.988 48.7881 147.248 45.1627 154.41C40.5845 163.453 43.5596 168.468 47.1522 169.953C50.7448 171.437 58.6723 172.61 57.6806 170.938C57.3924 170.453 56.8325 170.281 56.1466 170.07C54.4718 169.556 52.0456 168.811 50.9881 162.705C49.4975 154.098 59.7765 151.615 71.0471 150.805C82.3178 149.994 93.0271 141.381 92.4659 133.578C92.1926 129.779 90.1144 126.73 87.9815 123.6C85.7332 120.302 83.4241 116.914 83.1041 112.465C82.4804 103.795 93.6263 101.25 103.163 100.564C112.7 99.8784 111.278 104.338 105.396 107.375C99.5142 110.413 95.99 121.995 100.949 130.353C104.998 137.179 104.255 142.025 103.578 146.439L103.578 146.44C103.426 147.43 103.278 148.399 103.187 149.364C102.695 154.628 95.3908 162.126 84.1202 162.936C72.8495 163.747 60.718 176.82 61.404 186.357C60.7795 189.756 57.3104 196.781 48.0199 194.669C36.4069 192.03 43.1148 183.359 46.1349 185.244C47.9176 186.357 43.9772 179.607 39.3739 183.359C34.7705 187.111 34.4473 192.03 38.5945 196.973C39.8248 198.44 45.1627 204.472 54.0522 204.472C52.2899 206.781 50.0187 208.349 47.7538 209.913C44.3786 212.243 41.0172 214.564 39.3739 219.314C38.388 222.164 39.3421 224.331 40.3108 226.532C41.4687 229.162 42.6473 231.84 40.5588 235.786C37.9044 240.801 33.1118 239.294 28.9748 237.993C27.1332 237.414 25.4215 236.875 24.0863 236.971C20.6184 237.221 17.6848 232.784 16.6516 230.534C16.4457 231.711 16.8025 235.055 19.8761 239.017C21.9075 241.635 23.5745 242.575 24.5849 243.144C25.4854 243.652 25.8643 243.865 25.5145 244.712C24.7722 246.508 24.0924 249.171 26.2628 255.115C27.0481 257.266 29.0655 259.1 31.1449 260.99C34.8126 264.324 38.673 267.833 36.3045 273.565C34.6274 277.624 30.8625 279.875 27.3027 282.004C22.9852 284.586 18.9694 286.987 19.3454 292.214C19.6854 296.941 23.9344 299.46 27.9987 301.869C32.1341 304.321 36.0782 306.659 35.5182 311.094C34.958 315.532 38.608 319.889 41.7255 323.61C44.7861 327.263 47.3335 330.304 44.8801 332.207C42.0783 334.381 38.1447 332.452 35.4701 331.141C33.4171 330.134 32.1059 329.491 32.6178 331.346C33.7966 335.619 43.7074 340.135 47.9176 338.089C49.3791 337.379 50.5715 335.848 51.7051 334.393C53.8372 331.655 55.7613 329.185 58.8764 332.943C57.2683 335.11 55.1079 340.499 59.3304 344.722C64.6087 350 72.149 344.24 71.395 340.711C71.3057 340.5 71.0602 340.772 70.6723 341.203C70.2199 341.704 69.5737 342.421 68.7559 342.837C67.3121 343.571 65.2966 343.303 64.2317 341.706C62.7236 339.444 63.8546 337.182 66.8708 337.375C72.9435 339.723 80.558 341.542 83.4595 340.711C84.2135 342.425 84.2889 346.155 78.5583 347.361C72.648 348.605 69.8176 351.903 66.6789 355.559C66.0134 356.335 65.3341 357.126 64.6087 357.918C60.4615 362.442 53.6752 359.376 53.2982 356.116C52.9212 352.855 53.6752 348.869 54.4292 346.23C52.2587 346.806 47.9176 349.589 47.9176 356.116C47.9176 364.274 61.2155 372.244 69.8869 361.311C75.1396 354.688 76.3804 354.705 79.0564 354.743C80.798 354.767 83.1476 354.8 87.6067 353.016C88.939 352.483 90.0995 351.783 91.1081 350.958C89.8875 352.948 88.1786 357.503 91.1081 359.803C92.8222 361.148 92.3732 362.473 91.8542 364.005C91.2644 365.745 90.5842 367.752 92.8849 370.359C95.5613 373.392 99.256 373.538 102.22 373.654C104.046 373.726 105.595 373.788 106.458 374.506C108.267 376.014 107.212 378.653 106.458 379.785C107.966 379.392 110.906 377.184 110.605 371.49C110.375 367.146 108.599 366.279 107.336 365.663C106.531 365.269 105.934 364.978 106.081 363.95C106.179 363.262 106.354 362.544 106.525 361.839C107.013 359.835 107.475 357.938 106.08 357.164C104.572 356.325 106.458 354.049 107.589 353.016C109.097 347.587 111.377 348.171 112.329 349.142C112.566 352.431 114.312 355.356 115.912 358.035C117.263 360.299 118.511 362.388 118.654 364.373C118.809 366.541 117.587 367.718 116.976 368.307C116.758 368.516 116.618 368.651 116.645 368.729C116.693 368.872 117.289 368.829 118.965 368.708C124.167 368.334 134.259 363.251 133.947 358.916C133.804 356.93 132.805 355.738 131.721 354.445C130.438 352.916 129.038 351.246 128.802 347.957C128.453 343.105 133.371 341.773 138.838 340.293C140.209 339.922 141.614 339.542 142.979 339.094C146.273 338.014 149.045 335.342 150.882 333.57C152.844 331.678 153.741 330.813 153.071 334.011C152.067 338.804 155.512 340.146 160.05 341.913L160.051 341.913C161.376 342.429 162.795 342.981 164.223 343.666C169.663 346.277 166.747 349.488 162.75 353.89L162.749 353.891C162.104 354.601 161.431 355.342 160.761 356.116C155.933 361.692 155.877 373.025 160.586 377.915C165.295 382.805 171.115 378.9 168.389 377.354C165.663 375.807 163.43 368.996 166.462 362.677C167.847 359.79 170.359 357.367 172.724 355.085C175.534 352.374 178.139 349.862 178.406 347.003C178.662 344.269 176.897 342.855 175.219 341.512C173.667 340.27 172.189 339.087 172.456 336.974C173.011 332.577 183.29 330.094 184.469 334.367C184.936 336.062 184.615 338.225 184.289 340.419C183.793 343.755 183.286 347.164 185.529 349.105C189.246 352.324 202.563 355.723 196.12 350.958C191.837 347.79 193.308 345.939 196.662 341.719C198.354 339.591 200.523 336.862 202.675 333.057C208.535 322.697 206.928 297.391 197.696 287.415C194.887 284.381 191.866 283.65 187.872 282.684C186.392 282.326 184.778 281.935 182.992 281.383C180.7 280.675 178.695 280.047 176.91 279.489C167.67 276.597 164.306 275.545 157.355 274.597C152.333 273.912 144.104 265.833 145.667 261.778C148.216 255.169 148.2 247.401 147.022 243.128C146.233 240.27 145.457 237.19 144.656 234.007L144.656 234.006C142.119 223.932 139.324 212.831 135.034 204.472C133.19 200.878 132.244 199.735 131.819 199.222C131.652 199.02 131.565 198.915 131.537 198.797C131.507 198.671 131.542 198.529 131.615 198.235C131.681 197.971 131.778 197.583 131.884 196.973C132.084 195.833 132.431 194.229 132.827 192.401L132.827 192.401C133.658 188.568 134.701 183.753 135.034 180.189C135.243 177.955 135.586 175.397 135.945 172.724L135.945 172.724L135.945 172.723L135.945 172.722C136.431 169.098 136.945 165.262 137.193 161.733C137.25 160.918 137.307 159.887 137.373 158.687L137.373 158.687L137.373 158.686C137.807 150.86 138.64 135.838 142.501 126.493C144.905 120.674 145.108 116.03 145.224 113.368C145.323 111.099 145.36 110.27 146.643 111.38L146.644 111.381L146.644 111.382C149.434 113.797 157.795 121.035 158.412 117.505C158.658 116.097 157.268 113.142 155.775 109.969C153.525 105.188 151.042 99.9109 153.572 98.6813C155.75 97.6229 157.83 98.4376 160.29 99.4016C162.586 100.301 165.213 101.33 168.56 101.089C172.381 100.814 173.287 96.7816 173.735 94.7889C174.099 93.1647 174.16 92.8958 175.246 97.1222C177.666 106.534 179.219 116.009 174.884 116.32C172.922 116.462 169.803 115.435 166.995 114.511C163.601 113.394 160.661 112.427 160.763 113.85C160.951 116.451 166.651 123.013 175.446 124.123C184.24 125.233 185.725 121.641 187.022 115.447C188.319 109.254 183.667 93.0307 181.496 87.0871C179.326 81.1436 179.756 75.0114 186.505 71.9116C189.471 70.549 192.701 70.5145 196.174 70.4774C200.601 70.4301 205.423 70.3786 210.593 67.5647C213.575 65.9418 216.711 63.9437 219.347 62.2648C224.865 58.7494 228.187 56.6338 223.286 62.2944C216.044 70.6584 217.229 87.1309 221.445 97.2851C223.959 103.338 227.724 105.275 230.606 106.758C232.558 107.762 234.105 108.558 234.581 110.284C235.209 112.56 233.148 115.276 230.889 118.255C228.907 120.867 226.773 123.681 226.166 126.575C224.869 132.769 225.243 137.97 234.967 139.885C244.691 141.8 247.348 130.28 246.419 129.476C246.081 129.184 245.108 129.626 243.751 130.243C241.367 131.327 237.799 132.949 234.406 132.083C229.079 130.723 231.306 125.334 236.876 117.962C238.847 115.353 241.074 113.272 243.071 111.405C246.719 107.995 249.601 105.302 248.758 101.421C248.216 98.9232 244.409 97.1127 240.284 95.1507C234.487 92.3939 228.061 89.3379 229.18 83.6572ZM41.988 273.089C41.234 275.854 38.972 281.911 35.9557 284.022C35.5368 284.316 35.1318 284.585 34.7455 284.843C31.6548 286.903 29.7556 288.169 31.4312 294.202C32.3279 297.43 34.7604 299.378 37.0647 301.224C39.6043 303.259 41.988 305.168 41.988 308.528C41.988 312.217 43.4867 314.283 44.9027 316.234C45.4887 317.042 46.0606 317.83 46.5062 318.705C47.0765 321.511 47.5906 322.918 47.2659 320.97C47.1255 320.128 46.8544 319.39 46.5062 318.705C45.7519 314.995 44.8991 308.837 45.7578 304.758C46.6097 300.712 43.8529 298.711 41.2923 296.852C39.3197 295.42 37.4635 294.072 37.4635 291.94C37.4635 289.387 39.2024 286.629 40.8686 283.987C42.4014 281.556 43.8728 279.223 43.8728 277.236C43.8728 273.918 42.6163 273.089 41.988 273.089ZM33.3165 257.631C29.6973 254.313 29.5464 248.206 29.9234 245.567C30.0512 245.63 30.1871 245.735 30.3436 245.855L30.3441 245.856L30.3441 245.856C30.8029 246.209 31.4382 246.698 32.5623 246.698C32.8543 246.698 33.3442 246.655 33.9444 246.603L33.9452 246.603C36.4449 246.387 40.8566 246.005 40.8566 247.829C40.8566 248.753 39.5967 248.985 38.1842 249.245C36.1411 249.621 33.7788 250.055 34.4473 252.73C35.2687 256.016 37.6028 261.83 38.9663 265.036C38.1435 263.323 36.3175 260.382 33.3165 257.631ZM39.3486 265.925C39.2627 265.689 39.1358 265.389 38.9663 265.036C39.1045 265.361 39.2328 265.659 39.3486 265.925ZM259.374 30.9401C260.117 29.1438 262.468 25.4888 265.936 25.2394C270.271 24.9275 273.059 27.3414 270.583 29.2624C268.602 30.7992 262.285 31.0212 259.374 30.9401ZM163.601 92.7311C167.763 92.4318 168.346 85.9991 168.117 82.8202C166.755 84.0801 163.351 86.8232 160.626 87.7164C159.111 88.2131 157.179 87.7048 155.364 87.2275C153.1 86.632 151.019 86.0847 150.16 87.5977C148.613 90.3234 146.387 95.7123 146.574 98.3132C146.669 99.6339 147.481 98.4313 148.59 96.7895C149.665 95.198 151.019 93.1937 152.268 92.6749C153.651 92.1007 155.347 92.2798 157.445 92.5014C159.198 92.6866 161.233 92.9015 163.601 92.7311ZM168.711 30.4895C171.414 27.6807 177.513 22.0133 180.287 21.8137C183.061 21.6141 190.487 26.3088 193.853 28.681C191.747 27.6706 186.197 26.443 180.848 29.6165C176.314 32.3066 175.139 31.5488 174.04 30.8407C173.519 30.5047 173.016 30.1799 172.179 30.2401L168.711 30.4895Z" fill="#766287"/>
<path d="M116.803 158.476C119.82 163.125 122.534 174.31 109.263 181.851C92.6744 191.276 121.328 198.816 103.608 215.028C85.8881 231.24 118.312 248.206 91.1663 255.369C64.0211 262.532 73.0695 290.054 91.1663 290.054" stroke="#907B9D" stroke-width="3.01613" stroke-linecap="round"/>
<path d="M269.329 245.189C269.015 249.588 267.067 258.913 261.789 261.024" stroke="#6A507C" stroke-width="3.01613" stroke-linecap="round"/>
<path d="M155.47 118.135C150.82 116.501 141.671 111.047 142.274 102.301C142.877 93.5537 152.831 92.1211 155.47 92.1211C158.109 92.1211 166.328 94.8355 167.534 90.613C168.741 86.3904 168.791 84.3293 168.665 83.8267" stroke="#635A69" stroke-width="3.01613" stroke-linecap="round"/>
<path d="M145.667 111.349C145.542 115.119 144.838 123.413 143.028 126.429" stroke="#6A507C" stroke-width="3.01613" stroke-linecap="round"/>
<path d="M131.34 85.7114C128.073 91.7437 119.879 104.261 113.244 106.07C104.949 108.332 98.54 109.463 98.54 120.397C98.54 131.33 107.588 133.593 104.572 144.903" stroke="#6A507C" stroke-width="3.01613" stroke-linecap="round"/>
<path d="M135.865 91.3667C134.483 96.7706 130.361 108.332 124.931 111.349C118.145 115.119 111.359 118.135 111.359 125.298C111.359 132.462 126.063 133.216 124.931 125.298C124.027 118.964 119.779 119.392 117.768 120.397" stroke="#907B9D" stroke-width="3.01613" stroke-linecap="round"/>
<path d="M251.28 51.2368C247.51 49.4774 238.461 46.7126 232.429 49.7287C224.888 53.4989 216.594 67.4485 217.348 76.8739C218.102 86.2993 218.102 102.511 230.544 105.527C242.985 108.543 223.757 119.854 224.511 127.771C225.266 135.689 228.659 138.705 233.937 139.459" stroke="#635A69" stroke-width="3.01613" stroke-linecap="round"/>
<path d="M134.899 183.359C134.899 183.359 131.341 191.581 131.341 196.444C131.341 201.306 139.084 211.624 139.594 215.455C140.103 219.286 146.22 240.42 147.921 244.332C149.623 248.245 144.519 257.287 146.22 263.21C147.921 269.132 153.917 274.984 163.486 275.003C168.403 275.013 175.636 278.527 182.762 280.912C189.505 283.169 196.179 284.173 199.773 288.593C203.062 292.637 202.805 296.436 203.298 300.594C203.914 305.782 204.81 311.166 204.949 314.072C205.199 319.308 211.208 334.31 211.268 336.428" stroke="#4E5054" stroke-width="3.01613" stroke-linecap="round" stroke-linejoin="round"/>
<path d="M218.809 38.6613C212.263 35.7584 197.13 31.6943 188.961 38.6613C178.751 47.3701 175.609 57.6626 175.609 68.7465C175.609 79.8304 174.823 83.7889 165.398 82.9972C155.972 82.2055 145.762 77.4553 143.405 84.5806" stroke="#6A507C" stroke-width="3.01613" stroke-linecap="round"/>
<path d="M193.926 37.6351C193.078 35.324 190.195 31.1641 185.447 33.013C179.513 35.324 175.274 43.7975 180.36 46.8789" stroke="#6A507C" stroke-width="3.01613" stroke-linecap="round"/>
<path d="M253.09 38.5846C255.733 32.015 262.764 19.2187 269.742 20.5897C278.465 22.3035 268.156 31.6961 261.813 32.5864C255.469 33.4768 251.504 32.5866 245.954 26.5882" stroke="#907B9D" stroke-width="3.01613" stroke-linecap="round"/>
<path d="M217.3 32.4568C211.455 26.9734 196.735 16.3199 184.618 17.5733C169.473 19.14 157.516 26.1902 154.328 34.807C151.139 43.4238 155.922 59.874 148.748 65.3574C141.574 70.8408 135.994 70.0575 133.603 67.7075" stroke="#907B9D" stroke-width="3.01613" stroke-linecap="round"/>
<path d="M107.966 159.984C110.982 164.634 113.696 175.819 100.425 183.359C83.8365 192.784 112.49 200.325 94.77 216.536C77.0502 232.748 109.474 249.714 82.3284 256.877C55.1832 264.04 64.2316 291.563 82.3284 291.563" stroke="#907B9D" stroke-width="3.01613" stroke-linecap="round"/>
<path d="M101.179 169.786C94.2674 171.42 79.3124 177.176 74.7882 187.129C69.133 199.57 69.51 206.734 52.9213 205.226C36.3325 203.718 33.3164 195.423 35.2015 187.129" stroke="#907B9D" stroke-width="3.01613" stroke-linecap="round"/>
<path d="M88.3606 193.915C82.9567 194.795 72.1489 200.023 72.1489 213.897C72.1489 231.24 70.6408 245.566 58.5763 246.32C46.5118 247.074 37.4634 259.516 46.5118 276.105" stroke="#907B9D" stroke-width="3.01613" stroke-linecap="round"/>
<path d="M67.625 218.798C64.4832 217.793 56.6161 219.251 50.2823 233.125C42.3649 250.468 31.8085 246.698 23.5141 242.55C16.8786 239.233 15.2197 230.863 15.2197 227.093" stroke="#6A507C" stroke-width="3.01613" stroke-linecap="round"/>
<path d="M101.557 356.41C99.2944 356.535 95.4488 355.58 98.1634 350.754C101.557 344.722 116.637 343.968 109.097 333.412C101.557 322.855 91 325.871 98.1634 311.168C105.327 296.464 104.95 296.464 104.196 285.531C103.442 274.597 118.899 273.843 114.752 262.156C110.605 250.468 98.5405 249.337 109.097 230.109C119.653 210.881 120.407 208.996 114.752 196.932" stroke="#6A507C" stroke-width="3.01613" stroke-linecap="round"/>
<path d="M101.678 381.292C99.4155 381.418 95.5699 380.463 98.2844 375.637C101.678 369.605 116.758 368.851 109.218 358.294C101.678 347.738 91.1211 350.754 98.2844 336.05C105.448 321.347 105.071 321.347 104.317 310.413C103.563 299.48 119.02 298.726 114.873 287.038C110.726 275.351 98.6616 274.22 109.218 254.992C119.774 235.764 120.528 233.879 114.873 221.814" stroke="#6A507C" stroke-width="3.01613" stroke-linecap="round"/>
<path d="M118.899 366.966C122.041 366.84 129.229 365.156 132.849 359.425C137.373 352.262 124.554 353.77 128.701 342.46C132.849 331.149 145.29 343.591 151.322 328.887C157.355 314.184 147.552 310.036 143.405 308.905" stroke="#6A507C" stroke-width="3.01613" stroke-linecap="round"/>
<path d="M195.056 351.508C190.784 352.262 182.313 351.131 182.615 340.575C182.992 327.379 184.5 328.133 178.845 322.101C173.189 316.069 171.304 303.25 176.959 296.464C182.615 289.678 173.189 287.039 167.157 281.383" stroke="#907B9D" stroke-width="3.01613" stroke-linecap="round"/>
<path d="M159.24 370.359C163.512 371.113 171.983 369.982 171.681 359.425C171.304 346.23 169.796 346.984 175.451 340.952C181.107 334.919 182.992 322.101 177.336 315.315C171.681 308.528 181.106 305.889 187.139 300.234" stroke="#907B9D" stroke-width="3.01613" stroke-linecap="round"/>
<path d="M190.155 290.432C192.543 292.945 195.886 300.083 190.155 308.528C182.992 319.085 196.942 321.724 195.057 333.789C193.172 345.853 188.27 342.837 192.041 347.738" stroke="#6A507C" stroke-width="3.01613" stroke-linecap="round"/>
<path d="M124.931 216.159C130.335 219.678 140.012 229.506 135.487 240.665C129.832 254.615 126.062 259.139 129.832 269.696C133.602 280.252 127.947 283.645 124.931 295.333C121.915 307.02 127.947 304.381 129.832 316.069C131.717 327.756 116.637 323.986 116.637 338.313C116.637 352.639 124.177 348.492 120.407 360.18" stroke="#907B9D" stroke-width="3.01613" stroke-linecap="round"/>
<path d="M84.2137 279.498C88.2352 281.886 95.0718 289.451 90.2459 300.611C84.2137 314.561 79.6895 315.692 68.379 315.315C57.0685 314.938 56.3145 305.512 56.3145 300.611" stroke="#907B9D" stroke-width="3.01613" stroke-linecap="round"/>
<path d="M51.7903 271.204C52.293 273.843 52.469 280.026 49.1512 283.645C45.004 288.169 44.25 287.415 44.25 291.94C44.25 296.464 50.2823 298.726 47.2661 304.758" stroke="#6A507C" stroke-width="3.01613" stroke-linecap="round"/>
<path d="M81.9515 317.577C80.5691 317.577 77.7289 318.632 77.4273 322.855C77.0502 328.133 83.4595 334.542 81.9515 337.182C80.4434 339.821 74.4113 340.575 71.3952 336.427C68.379 332.28 70.6411 328.133 73.2802 328.887" stroke="#6A507C" stroke-width="3.01613" stroke-linecap="round"/>
<path d="M92.508 336.428C93.3877 340.952 93.8652 350.453 88.7378 352.262C82.3285 354.525 75.9193 350.754 71.7721 355.279C67.6249 359.803 65.3628 368.851 56.6914 365.081" stroke="#907B9D" stroke-width="3.01613" stroke-linecap="round"/>
<path d="M183.369 70.6309C189.401 63.8446 187.139 55.1734 201.089 48.0101C212.249 42.2794 219.563 50.3979 221.825 55.1734C220.694 58.3152 216.17 65.2019 207.121 67.6148" stroke="#6A507C" stroke-width="3.01613" stroke-linecap="round"/>
<path d="M264.427 47.6328C265.684 49.1408 270.46 50.8751 279.508 45.7477C290.818 39.3384 303.26 60.8284 297.228 66.8606C291.195 72.8929 301.375 77.417 307.784 88.3505C314.193 99.284 315.324 97.0219 310.8 110.217C306.276 123.413 325.504 120.397 322.111 135.855C318.718 151.312 319.849 156.591 327.766 164.131C335.683 171.671 351.141 165.639 348.879 177.703C346.617 189.768 337.568 191.653 332.667 185.621" stroke="#6A507C" stroke-width="3.01613" stroke-linecap="round"/>
<path d="M263.673 57.0585C267.569 55.9274 276.643 55.098 281.77 60.8287C288.179 67.992 288.179 69.4999 288.556 79.6793C288.933 89.8588 299.867 84.5805 299.867 100.038C299.867 115.496 287.802 121.905 291.196 131.331" stroke="#6A507C" stroke-width="3.01613" stroke-linecap="round"/>
<path d="M256.51 65.3525C258.647 66.6093 262.618 70.857 261.411 77.7941C259.903 86.4655 261.034 92.4977 265.936 92.1207C270.837 91.7437 271.968 88.3506 271.591 85.3344" stroke="#6A507C" stroke-width="3.01613" stroke-linecap="round"/>
<path d="M297.982 140.756C300.37 150.558 303.713 172.199 297.982 180.343C290.819 190.522 302.506 198.062 293.835 208.242C285.164 218.421 283.278 226.716 287.049 243.681C290.819 260.647 278.377 260.647 273.099 265.925C267.821 271.204 270.837 283.645 263.297 286.284C255.756 288.923 261.789 304.004 260.658 311.167C259.527 318.331 257.264 315.692 252.363 325.871C247.462 336.05 253.117 340.198 248.593 342.083C244.069 343.968 248.97 350.754 245.2 360.557C241.429 370.359 244.069 372.998 233.889 371.867" stroke="#6A507C" stroke-width="3.01613" stroke-linecap="round"/>
<path d="M285.917 184.113C285.667 190.145 283.665 202.964 277.658 205.98C270.149 209.75 282.163 227.847 279.91 236.895C277.658 245.944 258.886 240.665 258.886 251.976C258.886 263.286 272.402 280.629 264.142 287.415C263.641 282.388 260.838 271.279 253.629 267.056C244.619 261.778 245.37 256.5 246.871 251.976" stroke="#907B9D" stroke-width="3.01613" stroke-linecap="round"/>
<path d="M304.768 125.298C301.305 131.531 294.378 146.09 294.378 154.467C294.378 164.937 271.372 165.685 266.92 179.147C262.467 192.61 261.725 207.568 266.92 217.29" stroke="#907B9D" stroke-width="3.01613" stroke-linecap="round"/>
<path d="M323.109 174.311C325.365 180.082 327.622 192.376 318.596 195.387C307.313 199.151 294.526 207.431 299.791 220.98C305.056 234.529 313.33 233.024 299.791 252.595C286.252 272.166 288.514 273.672 290.771 286.468C293.027 299.265 281.742 293.995 276.477 301.523C271.212 309.05 285.509 323.24 272.722 327.756C259.935 332.273 257.327 320.416 252.74 330.018C252.136 331.283 259.955 338.983 267.095 340.575C273.324 341.963 280.386 337.864 281.77 331.632C284.779 318.083 277.226 309.803 288.508 304.534" stroke="#907B9D" stroke-width="3.01613" stroke-linecap="round"/>
<path d="M294.212 140.379C290.19 142.641 282.147 148.824 282.147 155.46C282.147 162.095 282.147 164.257 282.147 164.508" stroke="#6A507C" stroke-width="3.01613" stroke-linecap="round"/>
<path d="M243.803 272.335C237.954 275.566 226.432 284.848 227.134 296.128C228.011 310.227 249.067 318.158 248.189 330.495C247.487 340.365 240.294 344.595 236.784 345.476" stroke="#907B9D" stroke-width="3.01613" stroke-linecap="round"/>
<path d="M223.429 295.71C219.632 298.373 212.564 305.653 214.667 313.466C217.296 323.232 240.077 324.12 237.448 333.886C235.346 341.699 232.031 342.732 228.234 345.099" stroke="#6A507C" stroke-width="3.01613" stroke-linecap="round"/>
<path d="M229.742 335.673C228.485 338.312 226.349 344.42 227.857 347.738C229.742 351.885 238.036 353.016 238.036 359.802" stroke="#6A507C" stroke-width="3.01613" stroke-linecap="round"/>
<path d="M287.709 236.895C291.478 246.572 296.755 266.981 287.709 271.204C278.664 275.426 271.184 278.241 268.575 279.121" stroke="#6A507C" stroke-width="3.01613" stroke-linecap="round"/>
<path d="M144.536 271.581C146.044 272.083 148.608 274.295 146.798 279.121C144.536 285.153 153.585 289.677 153.962 295.71C154.339 301.742 172.058 300.611 163.01 307.397C153.962 314.183 146.798 307.02 149.06 302.873C151.322 298.726 156.978 302.873 155.47 305.135" stroke="#907B9D" stroke-width="3.01613" stroke-linecap="round"/>
<path d="M298.359 299.48C301.124 299.229 307.03 296.992 308.538 290.055C310.423 281.383 304.391 280.252 305.145 273.089C305.899 265.926 310.8 266.68 313.817 259.893C316.833 253.107 311.554 249.714 313.817 245.19C316.079 240.665 317.587 232.748 315.702 229.732C313.817 226.716 309.292 220.307 317.21 208.619C323.544 199.269 326.384 193.413 327.012 191.653" stroke="#6A507C" stroke-width="3.01613" stroke-linecap="round"/>
<path d="M294.212 346.23C291.07 348.241 284.786 354.524 284.786 363.573C284.786 374.883 288.556 380.538 287.425 386.948" stroke="#6A507C" stroke-width="3.01613" stroke-linecap="round"/>
<path d="M332.291 212.012C339.202 214.651 352.876 222.87 352.272 234.633C351.518 249.337 356.797 260.27 365.845 263.286C374.893 266.303 357.551 290.055 373.762 294.579C389.974 299.103 366.222 313.053 373.762 328.133C381.303 343.214 392.236 325.494 385.073 321.724" stroke="#907B9D" stroke-width="3.01613" stroke-linecap="round"/>
<path d="M334.176 239.157C341.088 241.796 354.761 250.015 354.158 261.778C353.404 276.482 358.682 287.415 367.73 290.431C376.779 293.448 359.436 317.2 375.648 321.724C391.859 326.248 368.107 340.198 375.648 355.278C383.188 370.359 394.121 352.639 386.958 348.869" stroke="#907B9D" stroke-width="3.01613" stroke-linecap="round"/>
<path d="M330.028 232.371C335.558 239.157 345.411 255.218 340.585 265.172C334.553 277.613 321.357 278.744 322.111 297.595C322.865 316.446 340.585 323.609 340.585 335.297" stroke="#907B9D" stroke-width="3.01613" stroke-linecap="round"/>
<path d="M341.716 277.236C338.448 278.87 332.441 286.209 334.552 302.496C337.191 322.855 354.157 323.986 344.355 348.492" stroke="#6A507C" stroke-width="3.01613" stroke-linecap="round"/>
<path d="M340.962 287.416C341.465 292.317 344.657 302.798 353.403 305.512C364.337 308.905 362.075 325.871 353.403 324.74C344.732 323.609 346.994 316.446 349.256 314.938" stroke="#907B9D" stroke-width="3.01613" stroke-linecap="round"/>
<path d="M321.734 221.814C319.597 228.475 316.606 243.229 321.734 248.96C328.143 256.123 330.782 260.27 323.619 265.171C316.456 270.073 308.538 279.875 312.309 291.563C316.079 303.25 308.915 330.772 298.359 327.756" stroke="#6A507C" stroke-width="3.01613" stroke-linecap="round"/>
<path d="M325.504 380.915C325.755 383.68 327.615 388.833 333.044 387.325C339.831 385.44 339.077 380.538 337.191 375.637C335.306 370.736 334.929 363.196 337.191 360.933C339.454 357.163 336.814 356.032 334.175 350" stroke="#6A507C" stroke-width="3.01613" stroke-linecap="round"/>
<path d="M300.244 355.655C296.097 369.982 308.915 374.129 311.555 379.784C314.194 385.44 310.801 390.341 308.915 397.504C307.407 403.235 295.971 410.951 290.442 414.093C288.305 415.098 283.505 415.601 281.393 409.569C278.754 402.028 287.426 399.389 288.557 402.028" stroke="#907B9D" stroke-width="3.01613" stroke-linecap="round"/>
<path d="M317.587 372.621C321.608 368.222 328.445 357.616 323.619 350.377C317.587 341.329 318.341 339.821 320.226 329.641" stroke="#6A507C" stroke-width="3.01613" stroke-linecap="round"/>
<path d="M349.633 192.03C349.13 196.052 349.105 206.734 353.026 217.29C357.927 230.486 382.433 222.192 382.433 238.403C382.433 254.615 385.073 277.613 395.629 278.744C406.185 279.875 417.496 301.742 403.169 314.184" stroke="#907B9D" stroke-width="3.01613" stroke-linecap="round"/>
<path d="M362.829 344.722C364.588 346.732 365.845 352.714 356.796 360.556C345.486 370.359 364.337 366.589 362.075 373.375C359.812 380.161 350.01 378.276 353.403 382.423C356.118 385.741 359.31 383.806 360.567 382.423" stroke="#6A507C" stroke-width="3.01613" stroke-linecap="round"/>
<path d="M377.91 264.041C376.15 269.193 373.687 280.629 377.91 285.153C383.188 290.809 396.76 287.039 396.006 297.972C395.252 308.906 391.105 323.232 402.039 326.248C412.972 329.264 408.071 337.559 402.039 336.428" stroke="#6A507C" stroke-width="3.01613" stroke-linecap="round"/>
<path d="M233.889 75.9091C238.916 75.4064 249.724 77.8696 252.74 91.7438C256.51 109.087 266.312 95.5141 273.099 100.792C279.885 106.071 268.574 113.234 268.197 123.413C267.82 133.593 282.147 139.625 273.099 150.936C264.05 162.246 259.149 158.476 258.018 179.589C256.887 200.702 269.328 208.242 258.018 224.454C246.707 240.666 239.167 233.502 239.544 246.698C239.796 255.514 253.143 273.384 244.068 281.76C240.147 285.38 234.643 286.033 232.381 285.908" stroke="#635A69" stroke-width="3.01613" stroke-linecap="round"/>
<path fill-rule="evenodd" clip-rule="evenodd" d="M191.663 178.081C191.663 178.081 205.118 174.724 213.55 171.019C221.983 167.314 234.341 155.514 233.04 150.123C231.739 144.732 221.917 138.871 220.675 138.871C219.434 138.871 205.58 140.555 205.58 140.555L191.663 178.081Z" fill="#E1D9EA"/>
<path fill-rule="evenodd" clip-rule="evenodd" d="M205.99 155.459C205.99 155.459 209.89 154.126 213.066 152.553C216.242 150.981 218.808 147.212 218.808 147.212C218.808 147.212 210.528 147.885 208.896 147.212C207.264 146.539 205.99 155.459 205.99 155.459Z" fill="#67636B"/>
<ellipse cx="188.647" cy="151.312" rx="19.6049" ry="28.2762" fill="#635A69" stroke="#979797" stroke-width="0.754033"/>
<ellipse cx="135.111" cy="156.968" rx="18.0968" ry="26.3912" fill="#635A69" stroke="#979797" stroke-width="0.754033"/>
<path fill-rule="evenodd" clip-rule="evenodd" d="M117.749 156.719C117.749 156.719 120.13 167.465 122.838 170.303C124.191 171.72 126.728 164.638 131.816 155.257C136.915 145.856 146.138 135.498 145.878 135.157C145.358 134.476 138.423 131.486 133.494 132.311C128.565 133.135 123.304 137.615 121.29 142.638C119.276 147.661 117.749 156.719 117.749 156.719Z" fill="#D1C7D9"/>
<path fill-rule="evenodd" clip-rule="evenodd" d="M169.796 148.138L172.192 166.873C172.192 166.873 182.415 152.582 187.346 148.138C197.275 139.188 205.929 134.057 205.298 132.511C203.881 129.043 200.221 127.38 194.048 125.945C187.875 124.51 182.082 125.395 177.537 129.284C172.992 133.172 171.344 139.709 170.57 142.581C169.796 145.452 169.796 148.138 169.796 148.138Z" fill="#D1C7D9"/>
<path d="M156.224 138.117C156.224 138.117 157.87 135.854 160.417 135.854C162.964 135.854 166.026 136.985 166.026 136.985" stroke="#4E5054" stroke-width="3.01613" stroke-linecap="round" stroke-linejoin="round"/>
<path fill-rule="evenodd" clip-rule="evenodd" d="M166.238 136.817C165.54 138.732 167.148 146.292 167.148 146.292H169.169C169.169 146.292 169.229 138.523 173.533 133.203C177.838 127.883 181.237 124.042 188.526 124.261C195.814 124.48 202.368 126.432 205.056 131.625C207.744 136.817 206.986 147.165 206.986 147.165H210.648C210.648 147.165 212.797 144.634 213.675 143.921C214.164 143.522 212.979 141.648 214.451 141.011C216.517 140.117 220.651 140.436 221.64 139.976C223.333 139.188 223.333 130.614 223.333 130.614C223.333 130.614 207.842 126.137 203.741 124.261C199.64 122.386 194.16 119.487 188.526 120.105C182.891 120.723 177.897 123.476 173.533 127.045C169.169 130.614 166.936 134.903 166.238 136.817Z" fill="#918996" stroke="#4E5054" stroke-width="2.2621" stroke-linecap="round" stroke-linejoin="round"/>
<path d="M152.454 149.427V153.951" stroke="#4E5054" stroke-width="1.50807" stroke-linecap="round" stroke-linejoin="round"/>
<path d="M117.014 155.459C117.014 155.459 118.323 170.77 120.728 174.855C123.133 178.94 126.757 185.785 137.373 182.489" stroke="#4E5054" stroke-width="1.50807" stroke-linecap="round" stroke-linejoin="round"/>
<path fill-rule="evenodd" clip-rule="evenodd" d="M115.584 155.459L119.091 155.036C119.091 155.036 118.706 152.101 119.849 145.284C120.992 138.468 128.916 131.362 134.355 131.345C139.794 131.327 144.9 133.134 148.602 138.469C152.304 143.804 152.304 147.669 152.304 147.669H156.224C156.224 147.669 156.187 143.807 156.068 140.645C155.948 137.482 151.696 132.206 147.844 129.969C143.992 127.733 138.036 125.496 131.002 127.733C123.967 129.969 115.559 138.373 114.067 139.436C112.575 140.498 109.354 141.675 109.477 143.108C109.6 144.54 110.505 148.505 110.505 148.505C110.505 148.505 111.522 148.423 113.309 148.423C114.032 148.423 113.85 149.622 114.067 151.351C114.208 152.47 115.584 155.459 115.584 155.459Z" fill="#918996" stroke="#4E5054" stroke-width="2.2621" stroke-linecap="round" stroke-linejoin="round"/>
<path d="M170.225 141.133C170.225 141.133 167.86 149.855 170.225 160.143C172.589 170.43 177.292 179.632 189.088 178.78C200.884 177.927 206.431 165.547 207.499 158.891C208.567 152.236 208.12 147.942 208.12 147.942" stroke="#4E5054" stroke-width="1.50807" stroke-linecap="round" stroke-linejoin="round"/>
<path fill-rule="evenodd" clip-rule="evenodd" d="M158.381 151.689C159.773 151.689 146.874 167.485 145.267 170.495C143.66 173.504 141.071 177.616 142.678 180.043C144.285 182.47 139.938 180.301 139.774 177.616C139.61 174.931 139.15 174.476 141.718 170.495C144.285 166.513 156.989 151.689 158.381 151.689Z" fill="#F5F4F6"/>
<path fill-rule="evenodd" clip-rule="evenodd" d="M162.17 141.133C162.17 141.133 153.386 154.404 150.281 157.952C147.176 161.5 139.604 170.035 139.038 173.683C138.472 177.331 139.328 181.726 143.349 184.147C147.369 186.568 150.83 184.147 151.505 183.437C152.181 182.727 155.145 181.726 159.552 184.147C163.959 186.568 167.139 187.977 171.091 186.568C175.043 185.159 177.337 183.437 177.337 183.437" fill="#FAF7FF"/>
<path d="M162.17 141.133C162.17 141.133 153.386 154.404 150.281 157.952C147.176 161.5 139.604 170.035 139.038 173.683C138.472 177.331 139.328 181.726 143.349 184.147C147.369 186.568 150.83 184.147 151.505 183.437C152.181 182.727 155.145 181.726 159.552 184.147C163.959 186.568 167.139 187.977 171.091 186.568C175.043 185.159 177.337 183.437 177.337 183.437" stroke="#4E5054" stroke-width="1.50807" stroke-linecap="round" stroke-linejoin="round"/>
</g>
<defs>
<clipPath id="clip0">
<rect width="471" height="433" fill="white"/>
</clipPath>
</defs>
</svg>
